<?xml version="1.0" encoding="utf-8"?><!DOCTYPE svg PUBLIC "-//W3C//DTD SVG 1.1//EN" "http://www.w3.org/Graphics/SVG/1.1/DTD/svg11.dtd"><svg version="1.1" id="Contours" xmlns="http://www.w3.org/2000/svg" xmlns:xlink="http://www.w3.org/1999/xlink" x="0px" y="0px" width="469.050537px" height="694.398621px" viewBox="82.221123 0.412813 469.050537 694.398621" enable-background="new 0 0 469.050537 694.398621" xml:space="preserve" stroke="black" fill="none" stroke-linecap='round' stroke-linejoin='round'><desc xmlns:shape="http://adobe.com/products/shape"><shape:version>1.1.1</shape:version><shape:captureDetail>1.000000</shape:captureDetail><shape:source>4</shape:source></desc><path class="selected"  fill="#000000" opacity="1.000000" stroke="none" 
 	d="
M0.000000 693.448364 C0.851212 464.655975 1.702423 235.863510 2.553627 7.071055 C2.566681 3.562425 5.099930 -1.438167 7.986000 0.557137 C7.205643 229.416275 6.425278 458.275421 5.644913 687.134521 C5.632652 690.730469 2.684120 695.841431 0.000000 693.448364 z"/><path class="selected"  fill="#000000" opacity="1.000000" stroke="none" 
 	d="
M441.750122 0.598483 C441.709900 229.643188 441.669739 458.687897 441.629517 687.732544 C441.628906 691.369690 438.042358 696.448242 435.869873 693.531250 C436.072327 464.504028 436.274841 235.476791 436.477356 6.449546 C436.480286 3.088228 439.288269 -1.690156 441.750061 0.598479 z"/><path class="selected"  fill="#000000" opacity="1.000000" stroke="none" 
 	d="
M464.424133 693.430542 C463.459412 464.768158 463.536377 236.101349 464.655029 7.439626 C464.669678 4.446176 465.653931 0.430300 468.646912 0.485976 C468.781433 229.998581 468.915955 459.511169 469.050537 689.023743 C469.052246 691.944458 465.904419 695.948364 464.424133 693.430542 z"/><path class="selected"  fill="#000000" opacity="1.000000" stroke="none" 
 	d="
M326.345062 219.880753 C323.957397 218.132614 322.463928 215.450317 321.044189 212.853928 C314.456604 200.806793 307.869049 188.759659 301.281464 176.712524 C296.559479 168.077103 291.710419 158.967545 291.716125 149.125412 C291.741394 105.527786 291.766663 61.930157 291.791901 18.332523 C291.793213 16.064032 291.842407 13.635569 293.142212 11.776383 C295.362335 8.600826 299.972076 8.582862 303.834198 8.894397 C320.505035 10.239145 337.175873 11.583890 353.846680 12.928635 C358.076843 13.269857 362.455475 13.654469 366.162537 15.720425 C370.989014 18.410225 373.900238 23.489580 376.574402 28.324715 C382.542419 39.115395 388.510437 49.906071 394.478455 60.696747 C396.922394 65.115562 399.388306 69.587700 400.715912 74.459671 C402.220398 79.980766 402.202301 85.786369 402.173767 91.508705 C401.962250 133.971802 401.750702 176.434906 401.539154 218.898010 C401.530518 220.630005 401.443268 222.558701 400.209015 223.773819 C398.928070 225.034912 396.909729 225.043076 395.113617 224.970352 C376.011627 224.196899 356.909607 223.423447 337.807587 222.649994 C333.818359 222.488480 329.566467 222.239288 326.345062 219.880753 M298.920288 155.933426 C300.901581 158.325150 304.394196 158.630219 307.497528 158.752457 C326.064362 159.483826 344.631165 160.215179 363.197998 160.946548 C365.020874 115.854294 365.474640 70.706703 364.558502 25.586916 C364.500061 22.708303 364.271057 19.463375 362.080139 17.595295 C360.456879 16.211231 358.177887 15.976027 356.051819 15.801725 C339.691498 14.460471 323.331146 13.119215 306.970825 11.777959 C304.066895 11.539888 300.593292 11.554477 298.938995 13.952979 C297.995361 15.321117 297.952393 17.096039 297.943176 18.758013 C297.703400 62.023079 297.463623 105.288139 297.223816 148.553207 C297.209534 151.132721 297.274719 153.946945 298.920288 155.933426 M389.934784 62.209976 C383.953552 50.745007 377.336304 39.611874 370.123657 28.878836 C369.876801 65.985840 369.629974 103.092842 369.383148 140.199844 C369.212372 165.871002 379.435120 191.462524 397.245728 209.950867 C397.700806 171.888290 397.922119 133.822906 397.909607 95.757607 C397.907715 89.993683 397.894196 84.171959 396.604065 78.554276 C395.283234 72.803108 392.664154 67.441696 389.934784 62.209972 M393.092865 221.616409 C394.290100 220.541946 393.609222 218.584702 392.851196 217.165817 C385.056458 202.575317 377.261719 187.984802 369.466980 173.394302 C367.984192 170.618759 366.434204 167.761185 363.965210 165.810165 C360.113464 162.766449 354.827789 162.503510 349.920380 162.371216 C335.616608 161.985611 321.312866 161.599991 307.009094 161.214371 C305.426788 161.171722 303.760406 161.148071 302.368805 161.902374 C300.977203 162.656677 300.030853 164.478806 300.785431 165.870239 C309.558319 182.047684 318.386505 198.195160 327.269745 214.312286 C328.088684 215.798111 328.963745 217.344681 330.390259 218.263092 C331.895172 219.231979 333.775299 219.350098 335.562866 219.439728 C353.839752 220.356171 372.116608 221.272614 390.393494 222.189041 C391.337524 222.236374 392.389404 222.247742 393.092865 221.616409 z"/><path class="selected"  fill="#000000" opacity="1.000000" stroke="none" 
 	d="
M276.396790 432.939667 C265.755249 394.986298 266.238739 353.984741 277.772217 316.292847 C280.332550 307.925537 284.060272 298.974487 291.869568 295.027100 C297.313019 292.275604 303.723114 292.514282 309.814941 292.816437 C329.471527 293.791443 349.128113 294.766449 368.784698 295.741425 C372.932159 295.947144 377.186951 296.177246 380.988281 297.848663 C389.403778 301.548889 393.361725 311.113220 395.937653 319.937988 C407.654907 360.079773 407.109711 403.712646 394.393158 443.549133 C392.301819 450.100525 389.354401 457.165497 383.151001 460.134094 C379.395752 461.931122 375.058624 461.893005 370.896210 461.818909 C350.232635 461.451080 329.569061 461.083252 308.905518 460.715424 C303.653107 460.621948 298.237000 460.493835 293.435455 458.362793 C283.789459 454.081696 279.245911 443.101105 276.396790 432.939667 M311.910858 458.035217 C328.995056 458.416504 346.085846 458.503052 363.173035 458.294830 C341.068878 408.197174 341.339020 348.707977 363.897247 298.813141 C346.031158 297.296417 328.128296 296.212616 310.209686 295.562988 C305.302307 295.385071 300.135712 295.296417 295.801147 297.604126 C291.336945 299.980804 288.480957 304.527130 286.259918 309.070770 C281.020752 319.788696 278.181122 331.530670 276.350800 343.319336 C271.882812 372.096680 273.274048 401.771027 280.414886 430.004120 C282.979370 440.143524 287.193146 451.182434 296.687866 455.568146 C301.389587 457.739929 306.733063 457.919678 311.910858 458.035248 M376.397705 375.824219 C382.999542 387.548981 389.601379 399.273743 396.203217 410.998505 C402.725494 375.629944 398.674347 338.380035 384.701355 305.240479 C382.441772 299.881470 374.438538 299.272888 369.753815 302.719360 C365.069122 306.165802 362.974335 312.054413 361.354034 317.640045 C350.979797 353.402771 349.758301 391.780334 357.837341 428.130402 C359.851440 437.192505 362.534851 446.343964 368.026245 453.828827 C369.253448 455.501526 370.690308 457.135345 372.613739 457.912720 C378.285339 460.204987 383.698120 454.161438 386.480957 448.713745 C388.821533 444.131805 390.846893 439.388885 392.537994 434.529572 C394.099915 430.041473 395.390106 425.286285 394.717834 420.581940 C394.068359 416.037140 391.652557 411.965607 389.286926 408.031006 C383.456390 398.333496 377.625854 388.636017 371.795319 378.938507 C373.329437 377.900391 374.863586 376.862305 376.397705 375.824219 z"/><path class="selected"  fill="#000000" opacity="1.000000" stroke="none" 
 	d="
M269.825928 693.102722 C267.831055 693.288635 265.836182 693.474609 263.841339 693.660522 C263.813293 651.265930 263.785248 608.871277 263.757202 566.476624 C263.755646 564.097229 263.802094 561.554260 265.146851 559.591248 C267.354675 556.368469 271.928375 556.110046 275.834290 556.176575 C312.415680 556.799744 348.997101 557.422852 385.578491 558.045959 C388.332611 558.092896 391.808563 558.675415 392.485107 561.345581 C392.949158 563.177002 391.744690 564.973694 390.605255 566.480774 C359.682434 607.381958 328.759583 648.283142 297.836731 689.184265 C295.726166 691.975891 292.122162 695.070557 289.227020 693.104431 C320.733704 651.390991 352.240417 609.677612 383.747131 567.964233 C384.586853 566.852478 385.470612 565.593689 385.330536 564.207520 C385.058594 561.515930 381.534241 560.762634 378.829468 560.712585 C352.873901 560.232727 326.918335 559.752869 300.962769 559.273071 C295.288300 559.168152 287.970703 560.274902 286.758545 565.819397 C285.978638 569.386719 288.176849 573.855042 285.538971 576.380127 C282.733185 579.065857 277.920654 576.179810 274.261322 577.481812 C270.340576 578.876709 269.677826 584.049133 269.683472 588.210571 C269.730957 623.174622 269.778442 658.138672 269.825928 693.102722 M277.746979 559.676392 C275.434418 558.758179 272.649506 559.825500 271.108734 561.779236 C269.567963 563.733032 269.122955 566.373352 269.363892 568.849854 C269.522980 570.484802 269.989624 572.152832 271.078217 573.382996 C273.390015 575.995483 278.020386 575.567688 280.319519 572.944092 C282.618683 570.320435 282.707367 566.234863 281.145905 563.115356 C280.408112 561.641357 279.278992 560.284668 277.746979 559.676392 z"/><path class="selected"  fill="#000000" opacity="1.000000" stroke="none" 
 	d="
M36.456680 384.458069 C32.301735 384.566162 27.092522 383.998474 25.688850 380.086304 C24.787903 377.575287 26.146896 374.622925 28.396446 373.188904 C30.645996 371.754852 33.547165 371.650665 36.124855 372.338013 C39.363472 373.201630 42.786278 372.662476 46.137779 372.705933 C49.489281 372.749390 53.182625 373.603912 55.092201 376.358521 C57.001793 379.113159 55.542152 383.961578 52.191505 384.048737 C46.946556 384.185181 41.701622 384.321625 36.456680 384.458069 M34.361847 375.138977 C32.201508 375.426239 30.891685 378.310242 32.096870 380.126038 C33.302055 381.941833 36.468353 381.854919 37.572105 379.975739 C37.870880 378.703857 38.070213 377.321564 37.540085 376.127472 C37.009956 374.933350 35.487457 374.101868 34.347862 374.740814 M47.454659 380.982269 C48.565575 380.457123 49.676491 379.931946 50.787407 379.406799 C50.280830 378.456024 49.774269 377.505219 49.267693 376.554413 C47.381477 376.533051 46.086037 379.131836 47.238503 380.625214 z"/><path class="selected"  fill="#000000" opacity="1.000000" stroke="none" 
 	d="
M33.285294 257.770782 C36.341522 258.011475 39.399017 256.396088 42.399567 257.024719 C46.502037 257.884186 48.628883 263.572540 46.096642 266.912689 C43.564400 270.252869 37.513031 269.741150 35.577629 266.023193 C37.341682 265.746063 39.105736 265.468933 40.869789 265.191803 C41.950783 262.547089 38.088722 260.108856 35.461632 261.231995 C32.834549 262.355133 31.538094 265.263611 30.480515 267.917755 C29.337387 270.786621 25.032242 270.497742 22.461716 268.786133 C20.106293 267.217773 18.202019 264.762451 17.902306 261.948578 C17.602600 259.134705 19.242249 256.060089 21.957161 255.261993 C25.726784 254.153809 29.368279 257.462341 33.285294 257.770782 M26.090492 261.716858 C25.543472 261.326385 24.996445 260.935883 24.449425 260.545380 C22.674141 262.112854 22.731728 265.292389 24.562614 266.794556 C25.911278 265.760162 26.348396 263.706207 25.537819 262.212250 z"/><path class="selected"  fill="#000000" opacity="1.000000" stroke="none" 
 	d="
M37.735214 49.246086 C39.239212 49.642998 40.971291 48.746952 41.516273 47.290058 C42.061256 45.833160 41.342491 44.020325 39.947235 43.332710 C37.546890 42.149757 34.819748 44.313934 33.425323 46.597931 C32.030899 48.881927 30.924332 51.664082 28.463264 52.714893 C25.275261 54.076084 21.591133 51.596397 20.012886 48.510082 C18.662727 45.869812 18.361320 42.506931 19.971878 40.016941 C21.582443 37.526955 25.409821 36.508316 27.669502 38.428688 C32.910301 42.882553 42.667122 37.408310 47.191200 42.588623 C49.326744 45.033951 48.813728 49.297859 46.159096 51.166847 C43.504463 53.035835 39.317268 52.081100 37.735214 49.246086 M24.788841 48.290462 C27.105057 48.083252 27.040489 44.665905 26.264191 42.473839 C23.854576 42.848629 22.883080 46.558666 24.799767 48.066326 z"/><path class="selected"  fill="#000000" opacity="1.000000" stroke="none" 
 	d="
M53.143028 405.799591 C49.918968 408.255371 45.375526 406.926788 41.343239 406.519073 C36.103760 405.989319 29.476807 406.570923 27.001175 401.922913 C25.234131 398.605255 27.084175 394.243347 30.207497 392.151917 C33.330818 390.060486 37.314087 389.763092 41.067345 389.968628 C45.401611 390.205994 49.997963 391.178009 53.029411 394.284851 C56.060875 397.391693 56.596138 403.169342 53.143028 405.799591 M29.758934 399.376099 C29.777298 400.978333 31.619118 401.826599 33.152985 402.290009 C36.348244 403.255402 39.631615 404.231384 42.960930 403.991882 C46.290230 403.752380 49.726646 402.026703 51.036644 398.956604 C46.850258 392.353333 36.083244 391.421204 30.824356 397.206818 C30.269142 397.817627 29.749466 398.550690 29.758934 399.376099 z"/><path class="selected"  fill="#000000" opacity="1.000000" stroke="none" 
 	d="
M84.025414 31.087811 C87.343849 26.048439 94.477135 24.545851 100.205284 26.442053 C105.933434 28.338253 110.381630 32.951256 113.695335 37.993725 C113.259697 39.968399 110.150368 39.270851 108.830666 37.738697 C107.510948 36.206543 106.081749 34.057816 104.104942 34.483677 C103.440620 38.415817 99.598793 41.331612 95.624931 41.665508 C91.651070 41.999405 87.726204 40.126926 84.833092 37.382309 C84.034279 36.624496 83.269249 35.743298 83.051979 34.663868 C82.801781 33.420776 83.328041 32.146847 84.025414 31.087811 M91.955742 30.555107 C88.655296 31.497715 89.371361 37.289318 92.706352 38.101215 C96.041359 38.913116 99.326988 35.557098 99.406151 32.125603 C98.562584 29.082474 94.049370 27.895422 91.817757 30.129725 z"/><path class="selected"  fill="#000000" opacity="1.000000" stroke="none" 
 	d="
M113.349983 52.024868 C114.762260 54.878960 112.964668 58.498924 110.231422 60.132862 C107.498177 61.766800 104.146523 61.896854 100.962639 61.839249 C95.790260 61.745659 90.277962 61.142342 86.259727 57.884098 C83.495781 55.642906 82.035912 50.746529 85.044975 48.847080 C92.571556 44.095982 102.860863 44.160778 110.326988 49.006287 C111.536308 49.791126 112.710594 50.732738 113.349983 52.024868 M89.821236 50.840279 C88.344841 53.116611 89.813011 56.363579 92.157524 57.729115 C94.502037 59.094650 97.370522 59.090824 100.082817 59.021545 C103.441826 58.935745 107.776970 57.966316 108.158791 54.627983 C108.502022 51.626980 105.152016 49.578529 102.202827 48.925793 C99.849754 48.404999 97.416924 48.246136 95.016106 48.456512 C93.049034 48.628880 90.895714 49.183601 89.821236 50.840279 z"/><path class="selected"  fill="#000000" opacity="1.000000" stroke="none" 
 	d="
M47.347420 122.362030 C45.480354 127.513535 38.180740 127.480186 32.928337 125.919342 C31.479584 125.488823 30.004578 124.994629 28.844734 124.025604 C25.612961 121.325539 26.323395 115.638306 29.614281 113.010612 C32.905167 110.382912 37.761253 110.477043 41.585960 112.239525 C45.463974 114.026573 48.802391 118.347603 47.347435 122.362030 M34.107773 115.359734 C31.318214 117.458191 31.943985 122.589859 35.156082 123.956459 C38.368172 125.323059 42.499451 122.215294 42.076912 118.750237 C41.654373 115.285187 36.897331 113.261276 34.107773 115.359734 z"/><path class="selected"  fill="#000000" opacity="1.000000" stroke="none" 
 	d="
M40.001007 297.832275 C40.824722 295.750122 41.092918 293.261078 39.909378 291.360229 C38.725845 289.459412 35.717972 288.699951 34.186409 290.333435 C31.995598 292.670013 33.668785 298.063171 30.512009 298.605438 C29.146057 298.840088 27.901077 297.690277 27.313866 296.434875 C25.771904 293.138306 27.399193 288.919250 30.443130 286.924408 C33.487068 284.929535 37.538193 284.929260 40.931831 286.243866 C44.130371 287.482910 47.102547 290.271545 47.090187 293.701660 C47.077843 297.131775 42.606697 300.063049 40.001007 297.832275 z"/><path class="selected"  fill="#000000" opacity="1.000000" stroke="none" 
 	d="
M181.470032 352.685333 C182.996521 350.479950 184.522980 348.274567 186.049469 346.069183 C189.212524 348.938843 189.184937 353.829834 188.917755 358.092285 C188.768768 360.468903 187.014374 363.759491 185.016449 362.463806 C183.261230 361.325500 183.852051 357.462708 181.763580 357.584320 C179.973572 357.688538 180.091187 360.885315 178.391144 361.455231 C176.653320 362.037750 175.704712 359.468750 175.692352 357.635956 C175.678436 355.570862 175.664490 353.505737 175.650574 351.440613 C175.633850 348.962463 177.233673 345.418457 179.391205 346.637756 C179.627350 348.773804 180.342957 350.855499 181.470032 352.685333 z"/><path class="selected"  fill="#000000" opacity="1.000000" stroke="none" 
 	d="
M172.933289 374.341766 C176.797302 375.748810 180.625214 377.255035 184.411957 378.858490 C185.881012 379.480560 187.373108 380.135773 188.553253 381.209290 C191.505829 383.895081 191.573883 389.124329 188.692230 391.886078 C184.406464 388.347504 179.051483 386.121521 173.520203 385.579285 C175.660889 384.419647 177.328278 382.414154 178.077606 380.097717 C175.389832 379.514343 173.212311 377.077942 172.933289 374.341766 z"/><path class="selected"  fill="#000000" opacity="1.000000" stroke="none" 
 	d="
M181.638794 589.630676 C180.815765 587.505188 184.404694 585.973633 186.144073 587.446594 C187.883453 588.919556 187.991394 591.517151 187.962189 593.796265 C187.944763 595.153931 187.927368 596.511658 187.909973 597.869385 C187.897522 598.840759 187.857239 599.893250 187.245819 600.648193 C186.242737 601.886780 184.151917 601.621765 182.989655 600.531250 C181.827393 599.440674 181.355286 597.822388 180.931213 596.286072 C180.365845 597.548706 179.747986 598.875854 178.605743 599.656372 C177.463501 600.436890 175.631378 600.379211 174.945038 599.178040 C174.607910 598.588013 174.613373 597.870239 174.628021 597.190857 C174.694916 594.093384 174.761780 590.995850 174.828644 587.898315 C177.206512 587.500488 179.740082 588.144958 181.638794 589.630676 z"/><path class="selected"  fill="#000000" opacity="1.000000" stroke="none" 
 	d="
M193.391083 334.336639 C186.039062 330.936035 179.266266 326.287262 173.449951 320.649292 C180.563812 316.947601 188.909271 315.664856 196.806427 317.059296 C192.592438 318.756134 188.378418 320.452972 184.164429 322.149811 C185.818451 326.760681 189.902679 330.419769 194.666901 331.559082 C195.005127 332.624268 194.419495 333.899200 193.391083 334.336609 z"/><path class="selected"  fill="#000000" opacity="1.000000" stroke="none" 
 	d="
M30.581535 82.244255 C27.940010 80.850868 26.737885 77.413696 27.536797 74.536041 C28.335709 71.658386 30.845833 69.438766 33.694069 68.540573 C37.864395 67.225464 42.767334 68.689613 45.533607 72.076195 C47.121712 74.020416 47.996498 76.838753 46.832649 79.063049 C45.668793 81.287346 41.952034 81.909096 40.690659 79.738617 C41.573792 77.366119 42.358696 74.409378 40.647537 72.543739 C38.755531 70.480919 34.997169 71.597923 33.569420 74.005508 C32.141678 76.413086 32.416275 79.442215 32.967514 82.186493 C32.172188 82.205750 31.376862 82.224998 30.581535 82.244255 z"/><path class="selected"  fill="#000000" opacity="1.000000" stroke="none" 
 	d="
M194.344238 162.046402 C195.308167 163.645157 192.402771 164.641983 190.571381 164.279770 C188.019928 163.775146 185.468506 163.270523 182.917053 162.765900 C181.284271 162.442963 179.168152 160.911835 180.262085 159.657394 C182.462067 158.457764 185.300964 161.462418 187.503784 160.267960 C189.936676 158.948730 187.870941 155.127258 185.380157 153.920883 C182.889343 152.714508 179.548920 151.511536 179.505737 148.744324 C187.225006 149.936539 194.698120 152.700470 201.335449 156.818054 C199.536469 156.736053 197.635651 156.675903 196.050262 157.530075 C194.464874 158.384232 193.414368 160.504181 194.344238 162.046402 z"/><path class="selected"  fill="#000000" opacity="1.000000" stroke="none" 
 	d="
M179.497833 48.169994 C185.797943 45.881245 192.613007 45.022865 199.283875 45.677883 C200.287415 46.927361 198.457916 48.637856 196.856018 48.684498 C195.254120 48.731140 193.517151 48.113708 192.125549 48.908520 C190.234863 49.988388 190.478729 52.967209 191.905975 54.611546 C193.333221 56.255886 195.476898 57.047806 197.314301 58.216072 C199.151703 59.384338 200.853668 61.356617 200.457367 63.497601 C192.442749 60.040844 185.221283 54.759819 179.497833 48.169994 z"/><path class="selected"  fill="#000000" opacity="1.000000" stroke="none" 
 	d="
M40.233772 221.211624 C41.837448 219.821106 44.484283 219.849548 46.057701 221.274231 C47.631126 222.698914 47.921410 225.329941 46.696434 227.063370 C45.280853 229.066559 42.550781 229.521683 40.114868 229.809708 C34.862808 230.430725 27.876068 229.958099 26.521278 224.845932 C25.364166 220.479675 31.376160 216.286835 35.073616 218.881439 C36.315666 219.157288 35.847992 221.108124 34.888542 221.943726 C33.929100 222.779327 32.606186 223.785828 33.026138 224.986832 C33.199768 225.483383 33.646751 225.827347 34.086990 226.115295 C36.138725 227.457291 38.955948 228.183701 40.983070 226.804810 C43.010193 225.425919 42.674637 221.441299 40.233772 221.211624 z"/><path class="selected"  fill="#000000" opacity="1.000000" stroke="none" 
 	d="
M189.409637 628.196289 C189.182312 629.583374 188.436981 631.013000 187.119507 631.502686 C186.211548 631.840149 185.203674 631.675659 184.249847 631.506958 C181.184052 630.964722 178.118256 630.422485 175.052429 629.880249 C174.451874 629.773987 173.794403 629.634644 173.422424 629.151367 C172.422607 627.852417 174.695984 626.312683 176.266602 626.781860 C177.837189 627.250977 179.225861 628.553406 180.854889 628.371338 C183.169434 628.112549 184.038177 624.854248 182.873840 622.837219 C181.709473 620.820251 179.398285 619.813049 177.240906 618.935669 C175.560211 620.164673 173.416229 620.743347 171.345398 620.526978 C170.299622 619.761780 170.628143 617.977905 171.659698 617.193665 C172.691254 616.409424 174.091888 616.361877 175.386414 616.420105 C178.840363 616.575500 182.382050 617.300171 185.201599 619.301086 C188.021179 621.302063 189.968842 624.784424 189.409637 628.196289 z"/><path class="selected"  fill="#000000" opacity="1.000000" stroke="none" 
 	d="
M39.354256 246.362762 C41.825470 244.950806 40.335045 240.809036 37.725090 239.673843 C35.115135 238.538651 32.091408 239.050934 29.316467 238.418304 C28.077560 237.315765 30.182663 235.424911 31.813889 235.724197 C33.445107 236.023483 35.044739 237.168472 36.617195 236.641357 C39.433823 235.697174 42.772842 236.578537 44.756546 238.789825 C46.740257 241.001114 47.255226 244.415878 46.011879 247.113831 C45.419342 248.399597 44.300156 249.598724 42.886169 249.668976 C41.477760 249.738968 40.251465 248.691269 38.856476 248.485046 C37.063309 248.219940 35.384956 249.363617 33.600952 249.684631 C31.816948 250.005630 29.428291 248.552277 30.177826 246.901840 C31.946960 244.181503 36.536705 247.972595 39.354256 246.362747 z"/><path class="selected"  fill="#000000" opacity="1.000000" stroke="none" 
 	d="
M38.030495 166.805145 C34.751099 166.571136 31.471695 166.337128 28.192299 166.103119 C31.481674 163.409607 36.172005 162.535095 40.211029 163.862244 C42.189148 161.835754 39.357964 158.369934 36.529991 158.221008 C33.702026 158.072067 31.002846 159.569687 28.170990 159.557541 C26.993889 157.939194 28.735077 155.574188 30.704300 155.218140 C32.673523 154.862091 34.634171 155.698975 36.594109 156.103027 C38.848831 156.567856 41.209297 156.464264 43.416901 157.117188 C45.624504 157.770111 47.780373 159.517838 47.837334 161.819260 C47.888786 163.897705 46.161903 165.683929 44.205650 166.387955 C42.249405 167.091995 40.104301 166.953125 38.030495 166.805145 z"/><path class="selected"  fill="#000000" opacity="1.000000" stroke="none" 
 	d="
M238.769470 630.186829 C242.266388 627.842590 247.010651 627.496765 250.810516 629.309143 C254.610382 631.121521 257.327484 635.026001 257.706543 639.218811 C257.805725 640.316040 257.670807 641.593384 256.769470 642.226807 C256.118683 642.684143 255.256531 642.665283 254.463470 642.604492 C250.063293 642.267395 245.720551 641.192505 241.671143 639.438293 C242.077271 637.630676 244.643982 637.506104 246.388702 638.129333 C248.133392 638.752625 250.180267 639.666138 251.689331 638.591370 C253.428833 637.352417 252.695831 634.375977 250.905090 633.212341 C249.114349 632.048645 246.827271 632.116516 244.691895 632.084595 C242.556519 632.052673 240.196838 631.775391 238.769470 630.186829 z"/><path class="selected"  fill="#000000" opacity="1.000000" stroke="none" 
 	d="
M180.439178 681.495178 C178.392853 678.410095 176.346527 675.324951 174.300201 672.239868 C176.319611 672.435303 177.494507 670.128662 178.660736 668.468445 C179.826996 666.808289 182.925964 665.883789 183.456390 667.842102 C184.152466 670.411987 186.332672 672.521851 188.923981 673.133301 C186.755707 676.012573 184.587433 678.891846 182.419159 681.771057 C182.237274 682.012573 182.033051 682.269531 181.740204 682.344788 C181.202881 682.482727 180.745819 681.957458 180.439178 681.495178 z"/><path class="selected"  fill="#000000" opacity="1.000000" stroke="none" 
 	d="
M171.246887 548.613647 C168.862976 546.195984 170.132202 541.661682 173.094452 540.002441 C176.056671 538.343201 179.865021 539.040405 182.791656 540.761719 C185.934937 542.610474 188.402740 545.580933 189.644073 549.009827 C189.977295 551.040588 186.777161 551.936584 185.150085 550.676575 C183.523010 549.416504 182.998108 547.237793 182.035889 545.418640 C181.073700 543.599487 178.955963 541.918335 177.109650 542.827271 C175.753479 543.494934 175.331146 545.171570 174.713531 546.551270 C174.095917 547.930908 172.585846 549.315063 171.246887 548.613647 z"/><path class="selected"  fill="#000000" opacity="1.000000" stroke="none" 
 	d="
M31.201866 21.546589 C34.719833 20.491924 38.436478 19.428778 42.011703 20.269104 C45.586937 21.109430 48.819633 24.600822 47.995186 28.179752 C47.362404 30.926720 44.575638 32.749096 41.785156 33.148449 C38.994682 33.547802 36.179535 32.820827 33.454361 32.099957 C32.539894 31.858061 31.491013 30.638353 32.358978 30.262316 C34.359032 30.721468 36.468193 31.178360 38.433556 30.588112 C40.398911 29.997864 42.089615 27.958900 41.535927 25.982927 C40.473717 22.192184 34.396545 23.847038 31.201866 21.546589 z"/><path class="selected"  fill="#000000" opacity="1.000000" stroke="none" 
 	d="
M111.660057 18.935663 C110.306190 19.851524 108.580177 19.955956 106.947350 20.030827 C103.123085 20.206182 99.298836 20.381538 95.474586 20.556894 C92.532066 20.691820 88.868553 20.402130 87.715828 17.691444 C93.814110 19.474525 100.632179 14.290730 106.451180 16.841747 C105.876274 14.324108 107.598122 11.507031 110.100899 10.870531 C113.497383 11.604537 114.538231 16.988638 111.660057 18.935663 z"/><path class="selected"  fill="#000000" opacity="1.000000" stroke="none" 
 	d="
M46.589684 328.253296 C48.353661 330.025940 48.368126 333.735748 45.972740 334.454102 C43.935516 335.065033 42.090935 333.129517 40.892296 331.372620 C38.243248 334.727905 33.655174 336.429199 29.458992 335.612122 C31.460281 332.645264 33.561417 329.582123 36.638168 327.754303 C39.714920 325.926483 44.065338 325.716553 46.589684 328.253296 z"/><path class="selected"  fill="#000000" opacity="1.000000" stroke="none" 
 	d="
M31.554047 84.913872 C32.957024 86.581322 32.907494 89.288277 31.444458 90.903290 C33.194061 92.661522 36.063187 90.845276 37.962769 89.250259 C39.862343 87.655243 43.381042 86.617775 44.285332 88.927483 C42.259506 91.371895 40.145996 93.886902 37.296669 95.287064 C34.447342 96.687233 30.638710 96.661507 28.448143 94.363571 C25.647675 91.425850 27.556793 85.617348 31.554039 84.913872 z"/><path class="selected"  fill="#000000" opacity="1.000000" stroke="none" 
 	d="
M29.742126 13.398422 C29.499924 11.512712 31.813934 10.278943 33.712898 10.371189 C35.611855 10.463435 37.489891 11.273580 39.360741 10.935222 C42.019501 10.454366 43.847191 7.325773 42.960297 4.773582 C45.000404 4.068529 47.379021 5.560442 48.013237 7.623666 C48.647453 9.686890 47.773354 12.011246 46.215614 13.505430 C40.725914 13.687450 35.228996 13.651744 29.742126 13.398422 z"/><path class="selected"  fill="#000000" opacity="1.000000" stroke="none" 
 	d="
M354.222076 652.730469 C350.881866 651.613708 347.021515 650.544617 344.013184 652.375977 C342.380920 653.369629 341.269836 655.172974 341.116333 657.077698 C338.267181 656.004883 337.404480 651.900879 339.146118 649.403809 C340.887756 646.906738 344.432770 646.117249 347.343567 647.009338 C350.254395 647.901428 352.566956 650.175232 354.222076 652.730469 z"/><path class="selected"  fill="#000000" opacity="1.000000" stroke="none" 
 	d="
M199.163422 649.878601 C193.620300 649.119812 188.061890 648.359802 182.468048 648.254150 C180.511200 647.221069 182.199982 643.883911 184.406708 643.719421 C186.613403 643.554932 188.549927 645.041199 190.583191 645.914429 C192.616455 646.787598 195.587158 646.687988 196.356445 644.613159 C196.966919 642.966736 199.755188 643.408997 200.430237 645.030029 C201.105255 646.651123 200.270447 648.515503 199.163422 649.878601 z"/><path class="selected"  fill="#000000" opacity="1.000000" stroke="none" 
 	d="
M48.735466 138.126587 C43.723427 134.478149 36.284958 137.224701 30.755806 134.421097 C35.506516 133.532608 40.364937 132.641357 45.144127 133.361069 C49.923317 134.080780 54.693321 136.724884 56.656410 141.141327 C54.426903 143.329376 51.261024 139.965027 48.735466 138.126602 z"/><path class="selected"  fill="#000000" opacity="1.000000" stroke="none" 
 	d="
M259.481995 83.489983 C258.619141 83.063148 258.644928 81.708748 259.314087 81.016708 C259.983246 80.324661 261.010681 80.140038 261.969391 80.053139 C269.606201 79.360962 277.492645 82.866356 282.095917 88.999039 C279.589142 90.731224 276.529816 88.016380 274.127899 86.141479 C270.060242 82.966278 264.404663 81.942390 259.481995 83.489983 z"/><path class="selected"  fill="#000000" opacity="1.000000" stroke="none" 
 	d="
M182.613281 75.124352 C184.125702 73.722191 186.102203 76.331696 186.408752 78.371170 C186.782745 80.859238 186.961609 83.376617 186.943146 85.892570 C186.924774 88.396690 185.111786 91.851700 182.953674 90.581436 C181.623932 86.156876 181.268829 81.442207 181.920837 76.868385 C182.010925 76.236328 182.145111 75.558418 182.613281 75.124352 z"/><path class="selected"  fill="#000000" opacity="1.000000" stroke="none" 
 	d="
M294.628937 215.119919 C296.874695 214.418137 299.120453 213.716354 301.366211 213.014572 C302.222778 212.746902 303.246796 212.507263 303.943512 213.072861 C304.501678 213.525970 304.613800 214.319626 304.685547 215.034973 C301.532288 216.575455 302.634583 222.407532 306.132568 222.690857 C301.125610 224.492188 294.954956 220.431061 294.628937 215.119919 z"/><path class="selected"  fill="#000000" opacity="1.000000" stroke="none" 
 	d="
M38.967392 194.710190 C40.860207 194.915756 42.830856 195.147995 44.429321 196.182358 C46.027794 197.216721 47.111534 199.314651 46.366631 201.066833 C45.621727 202.819000 42.639702 203.214966 41.882759 201.467972 C39.970100 197.053589 34.110481 196.168091 29.318497 196.594482 C28.544571 196.095642 28.829308 194.784134 29.608879 194.294159 C30.388451 193.804169 31.383591 193.886551 32.298981 193.985962 C34.521782 194.227371 36.744591 194.468781 38.967392 194.710190 z"/><path class="selected"  fill="#000000" opacity="1.000000" stroke="none" 
 	d="
M53.810295 280.775604 C46.044640 280.328766 38.278976 279.881958 30.513313 279.435120 C29.119263 279.354919 27.422211 277.484192 28.775215 277.138947 C35.276077 276.984863 41.784195 277.137146 48.270744 277.595093 C50.577477 277.757935 53.479927 278.486847 53.810310 280.775604 z"/><path class="selected"  fill="#000000" opacity="1.000000" stroke="none" 
 	d="
M201.698029 115.467575 C197.440552 115.120766 193.589447 112.946320 189.677338 111.231117 C186.301605 109.751053 182.787170 108.587471 179.195129 107.760582 C187.312744 105.480476 196.682709 108.689583 201.698029 115.467575 z"/><path class="selected"  fill="#000000" opacity="1.000000" stroke="none" 
 	d="
M340.747772 472.750031 C342.258667 473.242493 343.748779 473.796173 345.238403 474.349670 C346.583649 474.849548 348.232056 475.996887 347.648956 477.308167 C339.680664 476.594330 331.882385 474.045593 325.030579 469.915771 C330.366089 470.138580 335.670502 471.095093 340.747772 472.750031 z"/><path class="selected"  fill="#000000" opacity="1.000000" stroke="none" 
 	d="
M53.674324 63.770096 C45.871040 63.376892 38.067757 62.983688 30.264473 62.590481 C29.740120 61.846222 29.566055 60.865719 29.802177 59.986450 C36.652382 60.253597 43.502579 60.520748 50.352776 60.787899 C52.199593 60.859921 54.784798 62.292686 53.674324 63.770096 z"/><path class="selected"  fill="#000000" opacity="1.000000" stroke="none" 
 	d="
M336.754669 539.580261 C330.189789 538.488953 323.327087 537.271667 318.066345 533.195801 C325.428314 533.363953 332.758606 534.837402 339.613770 537.526978 C340.729340 538.638245 338.307953 539.838440 336.754669 539.580261 z"/><path class="selected"  fill="#000000" opacity="1.000000" stroke="none" 
 	d="
M373.651947 241.526016 C367.933899 240.716843 362.315063 239.208755 356.960327 237.046005 C355.617645 236.503708 354.035706 235.056503 354.945831 233.930191 C361.142731 235.141464 367.248444 236.819000 373.194305 238.943939 C373.887970 239.578094 374.085419 240.692108 373.651947 241.526016 z"/><path class="selected"  fill="#000000" opacity="1.000000" stroke="none" 
 	d="
M327.318207 544.592468 C328.718964 544.366455 330.078705 543.386658 331.435089 543.803223 C332.511353 544.133789 333.181549 545.425781 332.831909 546.495972 C327.078705 549.896118 318.597076 546.987915 316.140686 540.772888 C320.069092 539.779907 323.317993 545.237915 327.318207 544.592468 z"/><path class="selected"  fill="#000000" opacity="1.000000" stroke="none" 
 	d="
M195.224243 436.032379 C187.770386 437.208740 179.860992 435.135101 173.943085 430.453033 C181.333832 430.697357 188.664246 432.619202 195.224243 436.032379 z"/><path class="selected"  fill="#000000" opacity="1.000000" stroke="none" 
 	d="
M31.426132 183.005768 C36.064751 182.301514 40.882217 182.810699 45.271118 184.469101 C46.389549 184.891724 47.355095 186.764923 46.164848 186.878006 C40.650063 185.273117 34.642052 185.410309 29.206284 187.265274 C28.014076 187.195602 27.574173 185.451889 28.269844 184.481186 C28.965523 183.510483 30.245415 183.185028 31.426132 183.005768 z"/><path class="selected"  fill="#000000" opacity="1.000000" stroke="none" 
 	d="
M38.065262 360.120514 C36.123466 359.847717 34.181671 359.574921 32.239876 359.302124 C31.493591 359.197266 30.501877 358.706787 30.785706 358.008667 C38.404808 357.028290 46.174934 357.230438 53.732750 358.605713 C49.218742 361.507874 43.379517 360.867096 38.065262 360.120514 z"/><path class="selected"  fill="#000000" opacity="1.000000" stroke="none" 
 	d="
M193.961121 80.922188 C194.263916 84.711502 194.193665 89.294510 190.972992 91.313835 C189.648895 86.708641 189.267426 81.834618 189.858917 77.079498 C190.655365 76.175323 192.254120 76.546593 192.997314 77.495018 C193.740509 78.443443 193.865143 79.721092 193.961121 80.922188 z"/><path class="selected"  fill="#000000" opacity="1.000000" stroke="none" 
 	d="
M30.453476 316.999542 C31.679626 314.192535 35.626137 314.056183 38.581955 314.859802 C40.533875 315.390472 42.428070 316.133148 44.220520 317.070557 C40.026566 319.395660 34.623230 319.367798 30.453476 316.999542 z"/><path class="selected"  fill="#000000" opacity="1.000000" stroke="none" 
 	d="
M194.293213 570.498047 C192.836945 571.000488 190.894409 569.951965 190.977631 568.413696 C193.965790 566.640869 197.198151 565.280334 200.554626 564.382507 C201.956177 567.774963 197.739136 571.860474 194.392792 570.352112 z"/><path class="selected"  fill="#000000" opacity="1.000000" stroke="none" 
 	d="
M174.223572 396.821808 C178.940643 397.360626 183.509705 399.145660 187.342773 401.947205 C182.724091 403.043091 177.626617 401.896973 173.921539 398.929565 C173.543854 398.265533 173.674591 397.353058 174.223572 396.821808 z"/><path class="selected"  fill="#000000" opacity="1.000000" stroke="none" 
 	d="
M182.746735 441.131317 C183.836365 441.318939 184.987030 441.534882 185.815125 442.267548 C186.349884 442.740723 186.706299 443.410889 186.799652 444.118835 C181.914398 445.495209 176.273010 443.570740 173.247437 439.495728 C176.413849 440.040924 179.580292 440.586121 182.746735 441.131317 z"/><path class="selected"  fill="#000000" opacity="1.000000" stroke="none" 
 	d="
M362.202698 245.301056 C364.018463 244.113068 366.887756 245.658936 366.894440 247.828796 C362.284210 248.688965 357.345551 247.625031 353.498444 244.942902 C356.048004 243.086853 359.954956 243.443649 362.126160 245.730820 z"/><path class="selected"  fill="#000000" opacity="1.000000" stroke="none" 
 	d="
M189.216980 124.944992 C190.279297 124.768715 191.563843 124.671265 192.235687 125.512817 C192.500366 125.844360 192.616791 126.289970 192.548096 126.708603 C188.697601 129.387802 183.151794 129.334442 179.353546 126.581635 C182.641357 126.036087 185.929169 125.490540 189.216980 124.944992 z"/><path class="selected"  fill="#000000" opacity="1.000000" stroke="none" 
 	d="
M196.842957 421.144440 C198.552887 419.750366 201.617737 421.001984 201.862946 423.194519 C199.750854 425.477448 196.278839 426.392761 193.315765 425.447815 C192.774506 424.836670 192.583252 423.935120 192.829803 423.156860 C194.195374 422.584442 195.560974 422.011993 196.926575 421.439545 z"/><path class="selected"  fill="#000000" opacity="1.000000" stroke="none" 
 	d="
M334.278900 480.587189 C335.613312 480.586365 336.947693 480.585571 338.282104 480.584747 C338.756561 481.312653 338.932587 482.229004 338.761566 483.080872 C334.337921 484.599396 328.993195 482.747681 326.457153 478.817932 C329.058167 479.430389 331.659180 480.042816 334.260193 480.655243 z"/><path class="selected"  fill="#000000" opacity="1.000000" stroke="none" 
 	d="
M44.156830 210.069336 C38.870178 211.497635 33.110710 211.110001 28.063133 208.986145 C33.319374 207.374451 39.163963 207.767822 44.156830 210.069321 z"/><path class="selected"  fill="#000000" opacity="1.000000" stroke="none" 
 	d="
M307.892548 205.729446 C304.622559 207.794983 300.148895 207.762512 296.909241 205.649704 C299.751343 202.700485 305.093536 202.739258 307.892548 205.729446 z"/><path class="selected"  fill="#000000" opacity="1.000000" stroke="none" 
 	d="
M186.217712 136.385086 C184.278015 136.851791 181.755798 137.091003 180.749878 135.368134 C184.540222 133.826660 189.776550 132.692719 191.978241 136.141678 C190.526703 137.472519 188.073303 137.518051 186.573364 136.242004 z"/><path class="selected"  fill="#000000" opacity="1.000000" stroke="none" 
 	d="
M32.066544 7.001477 C30.918533 6.426195 29.770523 5.850912 28.622513 5.275629 C30.262276 2.907111 33.526756 1.809002 36.264633 2.704964 C36.828758 3.344593 37.022194 4.289958 36.754631 5.099759 C35.261398 5.591659 33.768158 6.083556 32.274918 6.575454 z"/><path class="selected"  fill="#000000" opacity="1.000000" stroke="none" 
 	d="
M185.300690 424.600922 C183.383392 424.511322 181.784241 422.523315 182.107605 420.631348 C183.451202 420.444000 184.979706 420.334808 186.001892 421.226715 C187.024078 422.118652 186.625458 424.320160 185.271637 424.233093 z"/><path class="selected"  fill="#000000" opacity="1.000000" stroke="none" 
 	d="
M185.803009 567.359131 C184.627441 567.461487 183.451874 567.563782 182.276306 567.666077 C181.820007 566.879761 181.637329 565.938049 181.766479 565.038147 C182.849213 564.518555 184.105682 564.369568 185.279907 564.621460 C185.769318 565.327698 185.941711 566.245239 185.742035 567.080994 z"/><path class="selected"  fill="#000000" opacity="1.000000" stroke="none" 
 	d="
M189.317963 145.481812 C190.142578 145.787796 190.726959 144.212891 189.902344 143.906921 C189.077728 143.600937 188.493347 145.175827 189.317963 145.481812 z"/><path class="selected"  fill="#000000" opacity="1.000000" stroke="none" 
 	d="
M381.524536 416.021606 C380.398743 416.397675 379.237518 415.642578 378.290131 414.927612 C375.249146 412.632599 372.208160 410.337616 369.167175 408.042633 C372.701080 407.925079 376.259674 408.624695 379.486084 410.071350 C380.728302 410.628326 381.992828 411.365814 382.600037 412.584259 C383.207275 413.802734 382.815796 415.590271 381.524536 416.021606 z"/></svg>